Coordinates
version=1
nRows=14
nColumns=36
inDegrees=yes

Units are S.I. units (second, meters, Newtons, ...)
If the header above contains a line with 'inDegrees', this indicates whether rotational values are in degrees (yes) or radians (no).

endheader
time	pelvis_tilt	pelvis_list	pelvis_rotation	pelvis_tx	pelvis_ty	pelvis_tz	hip_flexion_r	hip_adduction_r	hip_rotation_r	knee_angle_r	knee_angle_r_beta	ankle_angle_r	subtalar_angle_r	mtp_angle_r	hip_flexion_l	hip_adduction_l	hip_rotation_l	knee_angle_l	knee_angle_l_beta	ankle_angle_l	subtalar_angle_l	mtp_angle_l	lumbar_extension	lumbar_bending	lumbar_rotation	arm_flex_r	arm_add_r	arm_rot_r	elbow_flex_r	pro_sup_r	arm_flex_l	arm_add_l	arm_rot_l	elbow_flex_l	pro_sup_l
      7.06000000	    -21.63585167	     -0.61939616	     -1.28507891	     -0.15757513	      0.98306962	     -0.71439392	     28.82097144	     -8.35065556	     -3.47502281	      8.07385902	      0.14091542	    -20.35770567	     -4.29223751	     -7.49999987	     31.07823336	     -8.79274074	     -9.56641565	     12.49754977	      0.21812339	    -20.92455526	     -4.24834753	     -7.49999987	    -14.43371274	     -0.59552156	      1.00745754	      6.53175521	    -12.97103729	    -10.17259048	    116.84372814	     98.54276597	     -1.96301591	     -8.12705355	    -12.46715061	    112.18343466	    103.29428463
      7.07000000	    -21.48052914	     -0.79178147	     -1.15841594	     -0.15662637	      0.98197653	     -0.71453064	     28.80452118	     -8.30439599	     -3.51082061	      8.66173577	      0.15117581	    -19.74577816	     -4.79256482	     -7.49999987	     31.07325070	     -8.93718536	     -9.08666207	     12.97236031	      0.22641040	    -20.14982583	     -4.57792743	     -7.49999987	    -14.37198682	     -0.51720163	      0.95194340	      6.79006710	    -13.16423640	    -10.18096058	    117.07220655	     98.57018584	     -1.83078000	     -8.32170358	    -12.40073432	    112.38440564	    103.33542919
      7.08000000	    -21.42498344	     -0.84829955	     -1.03157452	     -0.15593603	      0.98041297	     -0.71484285	     28.93195664	     -8.40999760	     -3.46152556	      9.25569926	      0.16154243	    -19.37321174	     -4.91362082	     -7.49999987	     31.16697308	     -8.97397833	     -8.72657418	     13.40102670	      0.23389204	    -19.70340875	     -4.64647942	     -7.49999987	    -14.23628026	     -0.51514076	      0.88693650	      7.09493956	    -13.26186903	    -10.28722712	    117.18096056	     98.58143991	     -1.71666263	     -8.51614041	    -12.39500530	    112.44994129	    103.35333535
      7.09000000	    -21.73808699	     -0.92556646	     -0.81093914	     -0.15568777	      0.97792164	     -0.71525324	     29.55033351	     -8.55743240	     -3.72639549	     10.09959594	      0.17627120	    -18.25843378	     -5.04026617	     -7.49999987	     31.74280890	     -8.98521538	     -8.23493619	     13.96982344	      0.24381941	    -18.54723778	     -4.74579014	     -7.49999987	    -13.71365535	     -0.49751634	      0.68658173	      7.24566679	    -13.37057068	    -10.37560632	    117.28728743	     98.60416208	     -1.74570853	     -8.70800173	    -12.39184657	    112.60474663	    103.38904709
      7.10000000	    -22.03630792	     -1.08782935	     -0.69079292	     -0.15582402	      0.97546224	     -0.71527893	     30.15284287	     -8.54522340	     -3.91626647	     10.86323134	      0.18959915	    -17.35741773	     -4.86760051	     -7.49999987	     32.32749352	     -9.18225060	     -8.01602134	     14.56515806	      0.25420996	    -17.57784231	     -4.55604041	     -7.49999987	    -13.29841843	     -0.40834686	      0.58875056	      7.49723403	    -13.46859022	    -10.38302298	    117.34531597	     98.62118528	     -1.73439801	     -8.82552139	    -12.47901721	    112.66402969	    103.40018008
      7.11000000	    -22.09764571	     -1.24395807	     -0.64990054	     -0.15601493	      0.97358690	     -0.71530405	     30.38298642	     -8.47156740	     -3.90297632	     11.29265613	      0.19709403	    -17.13068004	     -4.83801555	     -7.49999987	     32.47313265	     -9.36426083	     -7.97258407	     14.75537554	      0.25752989	    -17.25040233	     -4.52531878	     -7.49999987	    -13.30209140	     -0.31693059	      0.57693835	      7.88039346	    -13.62112241	    -10.50302454	    117.39362973	     98.62247866	     -1.55283209	     -8.95292310	    -12.56129868	    112.66733410	    103.39637381
      7.12000000	    -22.37078312	     -1.30888295	     -0.55443664	     -0.15605607	      0.97118693	     -0.71582421	     31.00922901	     -8.63996443	     -4.61130611	     12.15503201	      0.21214533	    -15.38769219	     -3.69354368	     -7.49999987	     32.99119392	     -9.45000501	     -8.23318363	     15.38856919	      0.26858120	    -15.31616001	     -3.51276528	     -7.49999987	    -12.94701803	     -0.28295770	      0.43674459	      8.05651470	    -13.71044839	    -10.45461568	    117.35942934	     98.66399989	     -1.69002594	     -8.85428014	    -12.67805880	    112.67979464	    103.38699478
      7.13000000	    -22.45184786	     -1.36057784	     -0.43868131	     -0.15610346	      0.96944696	     -0.71641117	     31.09847391	     -8.70771983	     -4.64867539	     12.27422096	      0.21422557	    -15.29846666	     -3.72113062	     -7.49999987	     33.05727545	     -9.39587982	     -8.30299347	     15.36963322	      0.26825070	    -15.16745432	     -3.56626047	     -7.49999987	    -12.99444345	     -0.27369407	      0.35980899	      8.27676274	    -13.82541778	    -10.55691291	    117.38103058	     98.66156575	     -1.61443047	     -8.83650750	    -12.65453681	    112.63652502	    103.38240496
      7.14000000	    -22.78357717	     -1.39920397	     -0.40704657	     -0.15675825	      0.96715720	     -0.71673550	     31.86487845	     -8.80166325	     -5.11985877	     13.16516649	      0.22977550	    -14.39505778	     -3.93269919	     -7.49999987	     33.53587312	     -9.37584507	     -8.34699497	     15.71413825	      0.27426345	    -13.99095715	     -3.93587408	     -7.49999987	    -12.73726247	     -0.26351397	      0.36380857	      8.52146668	    -13.77514467	    -10.70260510	    117.35911054	     98.64815049	     -1.57484360	     -8.82515322	    -12.63818459	    112.47922263	    103.35608923
      7.15000000	    -23.30898664	     -1.54941534	     -0.31221668	     -0.15754047	      0.96478044	     -0.71702113	     32.59457896	     -8.77068793	     -5.44688561	     13.59666015	      0.23730649	    -13.25372202	     -3.12704327	     -7.49999987	     34.29198593	     -9.47665456	     -8.43901288	     16.07200294	      0.28050937	    -12.84426579	     -3.49803518	     -7.49999987	    -12.31505090	     -0.15078868	      0.38734854	      8.53224789	    -13.83088579	    -10.83589807	    117.39133970	     98.60482239	     -1.56374833	     -8.81198773	    -12.55946197	    112.45954467	    103.31638365
      7.16000000	    -23.61591671	     -1.60303097	     -0.27449720	     -0.15829556	      0.96294198	     -0.71730026	     33.09942021	     -8.76138451	     -5.62246008	     13.97159581	      0.24385035	    -12.75888764	     -3.41028226	     -7.49999987	     34.76349063	     -9.47470742	     -8.54100777	     16.34903416	      0.28534448	    -12.19295100	     -3.79405868	     -7.49999987	    -12.24671690	     -0.15241858	      0.42266762	      8.64281369	    -13.82724780	    -10.99826305	    117.41770926	     98.58461220	     -1.57857413	     -8.74361425	    -12.52429458	    112.55556023	    103.31089684
      7.17000000	    -23.91964619	     -1.69718511	     -0.21162512	     -0.15914975	      0.96128942	     -0.71766902	     33.56775044	     -8.71207012	     -5.75260330	     14.28190200	      0.24926621	    -12.31232127	     -3.62691143	     -7.49999987	     35.23248983	     -9.48828768	     -8.54663213	     16.56652377	      0.28914039	    -11.61067675	     -3.89877881	     -7.49999987	    -12.19431721	     -0.08274738	      0.46005304	      8.73998677	    -13.87244178	    -11.09806767	    117.42042850	     98.56877086	     -1.55131312	     -8.70855550	    -12.42390982	    112.56895538	    103.29397072
      7.18000000	    -24.15368081	     -1.79566627	     -0.16086317	     -0.16014389	      0.95987915	     -0.71791148	     33.96717857	     -8.64155424	     -5.88007045	     14.57066846	      0.25430614	    -11.99435042	     -3.85465336	     -7.49999987	     35.62935702	     -9.52297189	     -8.49443886	     16.76041641	      0.29252445	    -11.21136400	     -4.03229449	     -7.49999987	    -12.30438980	     -0.06194117	      0.48955413	      8.89151766	    -13.90569822	    -11.22269291	    117.39782342	     98.56130089	     -1.45732929	     -8.74061082	    -12.32811916	    112.66584168	    103.30342541
      7.19000000	    -24.30055193	     -1.82230560	     -0.11944719	     -0.16102191	      0.95875722	     -0.71818084	     34.15478944	     -8.62509413	     -5.88963706	     14.57218690	      0.25433264	    -11.93096802	     -3.88795055	     -7.49999987	     35.83069517	     -9.48949822	     -8.49184504	     16.75209573	      0.29237923	    -11.13641229	     -4.05648218	     -7.49999987	    -12.52624075	     -0.09612954	      0.51323752	      8.97965792	    -13.91431368	    -11.24541141	    117.37480086	     98.55805331	     -1.38675449	     -8.77345655	    -12.31131723	    112.67834999	    103.30648725
